<?xml version="1.0" standalone="no"?>
<!DOCTYPE svg PUBLIC "-//W3C//DTD SVG 20010904//EN"
 "http://www.w3.org/TR/2001/REC-SVG-20010904/DTD/svg10.dtd">
<svg version="1.0" xmlns="http://www.w3.org/2000/svg"
 width="491.000000pt" height="152.000000pt" viewBox="0 0 491.000000 152.000000"
 preserveAspectRatio="xMidYMid meet">

<g transform="translate(0.000000,152.000000) scale(0.100000,-0.100000)"
fill="#000000" stroke="none">
<path id = "Baixo" d="M180 785 l0 -605 690 0 690 0 0 605 0 605 -690 0 -690 0 0 -605z
m1330 0 l0 -555 -640 0 -640 0 0 555 0 555 640 0 640 0 0 -555z"/>
<path id = "Medio" d="M1740 775 l0 -605 690 0 690 0 0 605 0 605 -690 0 -690 0 0 -605z
m1330 0 l0 -555 -640 0 -640 0 0 555 0 555 640 0 640 0 0 -555z"/>
<path id = "Alto" d="M3310 775 l0 -605 690 0 690 0 0 605 0 605 -690 0 -690 0 0 -605z
m1330 0 l0 -555 -640 0 -640 0 0 555 0 555 640 0 640 0 0 -555z"/>
</g>
</svg>
